<svg width="294" height="294" viewBox="0 0 294 294" fill="none" xmlns="http://www.w3.org/2000/svg">
<path d="M196.403 90.6992C198.197 91.8295 199.618 93.4627 200.491 95.3952C201.661 98.1365 202.485 101.013 202.944 103.958C202.267 103.976 201.593 104.061 200.933 104.213C200.856 104.213 200.414 104.445 200.336 104.688C199.982 105.913 199.713 107.16 199.53 108.422L177.431 108.555C177.177 108.555 177.21 108.853 177.431 108.864C177.431 108.864 197.607 109.174 199.53 109.185C199.044 113.207 199.452 117.626 202.303 120.477C204.988 123.129 214.115 123.505 217.507 120.974C220.325 118.864 221.021 112.765 220.822 109.185C221.485 109.185 236.423 108.92 237.904 108.864C237.945 108.864 237.984 108.848 238.013 108.819C238.042 108.79 238.059 108.751 238.059 108.71C238.059 108.669 238.042 108.629 238.013 108.6C237.984 108.571 237.945 108.555 237.904 108.555C235.385 108.555 220.789 108.444 220.789 108.444C220.49 105.13 219.684 104.798 219.684 104.643C219.675 104.541 219.633 104.444 219.566 104.367C219.498 104.29 219.408 104.235 219.308 104.213C218.347 104.025 217.37 103.925 216.391 103.914C217.938 101.428 219.264 94.6659 221.695 90.1357C225.297 83.3845 238.854 89.8153 238.633 83.8486C238.368 77.219 231.009 73.4954 223.109 77.0091C215.606 80.3239 213.651 95.7929 213.518 103.87C211.253 103.87 212.347 103.936 209.098 103.87C211.938 100.091 215.551 87.4949 214.921 78.6886C214.2 72.8443 211.74 67.3514 207.861 62.9212C204.458 59.1091 200.469 57.4959 197.463 60.5566C193.044 64.9763 197.11 69.9154 200.889 74.9207C205.043 80.4454 206.601 83.1967 207.165 91.0638C207.429 95.3321 207.347 99.6148 206.922 103.87H205.695C206.645 100.765 205.419 93.9256 204.524 90.7102C203.242 86.169 201.054 81.5945 197.585 78.4455C193.486 74.9065 188.502 72.5498 183.166 71.628C179.906 71.0756 177.122 71.2855 175.608 72.1916C175.051 72.4811 174.621 72.9663 174.401 73.5538C174.181 74.1414 174.185 74.7896 174.415 75.3738C176.249 81.3736 189.221 86.2795 196.403 90.6992ZM223.33 77.7162C230.722 74.4014 237.528 77.882 237.76 83.8928C237.937 88.5004 224.645 82.7879 221.021 89.8484C218.501 94.7322 217.385 101.561 215.861 103.925H215.076C216.181 99.0525 218.888 88.2131 222.07 84.379C226.136 79.4178 233.219 82.3128 233.528 82.2354C233.65 82.2354 233.772 82.0365 233.407 81.9039C228.987 80.3018 224.49 80.3349 221.485 83.8928C217.872 88.1579 215.595 98.4337 214.645 103.958H213.695C213.993 96.2239 216.159 80.8653 223.33 77.7162ZM207.728 91.0528C207.286 83.2519 205.85 80.3902 201.485 74.4788C197.905 69.6723 194.071 65.0868 198.027 61.0759C200.723 58.3357 204.237 59.971 207.286 63.4184C211.02 67.7411 213.376 73.0824 214.048 78.7549C214.767 87.7048 211.12 100.555 208.524 103.881H207.938C209.12 98.8216 209.885 93.6738 210.225 88.4893C210.48 84.0696 210.402 80.9979 209.12 77.1527C208.067 74.225 206.606 71.4611 204.778 68.9431C203.906 67.701 202.946 66.5231 201.905 65.4183C201.879 65.3861 201.841 65.3656 201.799 65.3615C201.758 65.3574 201.717 65.3698 201.684 65.3962C201.652 65.4226 201.632 65.4607 201.627 65.5021C201.623 65.5436 201.636 65.585 201.662 65.6172C201.939 65.9064 202.197 66.2127 202.436 66.5343C205.883 70.954 209.286 77.4068 209.551 83.1083C209.817 88.8098 208.678 98.3232 207.629 103.958H207.319C207.807 99.6749 207.944 95.3586 207.728 91.0528ZM218.988 105.152C220.811 106.82 220.236 117.903 216.932 120.378C213.629 122.853 205.021 122.267 202.679 120.002C198.988 116.455 199.364 109.815 200.624 104.887C200.702 104.99 200.81 105.067 200.933 105.108C201.782 105.304 202.648 105.422 203.518 105.461C202.437 109.471 202.626 113.718 204.06 117.615C204.113 117.727 204.207 117.813 204.324 117.854C204.44 117.895 204.567 117.889 204.679 117.836C204.79 117.784 204.876 117.689 204.917 117.573C204.959 117.457 204.952 117.329 204.9 117.218C203.507 114.433 203.132 108.246 203.938 105.538C207.386 105.693 216.612 105.759 218.988 105.152ZM197.11 79.009C204.601 85.6386 206.524 100.323 205.364 103.903H204.679C204.522 100.833 203.987 97.7935 203.088 94.8537C200.701 87.1192 196.701 82.368 190.569 78.788C187.365 76.9556 183.937 75.5479 180.37 74.6003C180.329 74.5901 180.286 74.5965 180.249 74.6183C180.213 74.64 180.187 74.6753 180.177 74.7163C180.166 74.7574 180.173 74.8008 180.195 74.837C180.216 74.8733 180.252 74.8994 180.293 74.9097C184.457 76.2299 188.409 78.1426 192.027 80.5891C196.04 83.2603 199.173 87.0585 201.032 91.5058C202.797 95.437 203.916 99.6268 204.347 103.914H203.309C202.9 100.881 202.113 97.9119 200.966 95.0747C200.07 93.0345 198.6 91.2992 196.734 90.0804C189.431 85.5834 176.845 80.6554 175.166 75.1307C173.608 70.059 188.624 71.4071 197.11 79.009ZM101.566 135.902C86.8485 130.786 73.6556 128.499 65.446 126.433C65.3443 126.404 65.2379 126.396 65.1331 126.41C65.0284 126.424 64.9275 126.458 64.8364 126.512C64.7453 126.565 64.666 126.636 64.6032 126.721C64.5403 126.806 64.4953 126.903 64.4707 127.006C64.4462 127.108 64.4426 127.215 64.4602 127.319C64.4779 127.423 64.5164 127.523 64.5734 127.612C64.6304 127.7 64.7048 127.777 64.792 127.836C64.8793 127.896 64.9777 127.937 65.0813 127.958C70.3629 129.228 78.3405 130.687 86.9701 132.687C101.224 136.001 101.533 136.985 101.765 136.3C101.79 136.221 101.783 136.135 101.746 136.061C101.709 135.987 101.644 135.93 101.566 135.902ZM218.192 144.841C218.192 144.815 218.187 144.789 218.177 144.765C218.167 144.741 218.152 144.719 218.134 144.7C218.115 144.682 218.093 144.667 218.069 144.657C218.045 144.647 218.019 144.642 217.993 144.642C208.303 144.642 198.878 146.852 193.541 147.349C193.476 147.355 193.413 147.373 193.355 147.404C193.297 147.434 193.246 147.476 193.205 147.526C193.164 147.577 193.133 147.635 193.115 147.698C193.097 147.76 193.091 147.826 193.099 147.891C193.104 147.956 193.123 148.02 193.153 148.078C193.183 148.136 193.225 148.188 193.275 148.23C193.326 148.272 193.384 148.304 193.446 148.323C193.509 148.343 193.575 148.35 193.64 148.344C197.552 147.957 204.325 146.476 210.667 145.659C217.706 144.841 218.203 145.338 218.192 144.841ZM184.812 167.835C184.822 167.817 184.827 167.797 184.829 167.776C184.831 167.756 184.829 167.735 184.823 167.716C184.816 167.696 184.807 167.678 184.793 167.663C184.78 167.647 184.764 167.634 184.746 167.625L184.469 167.481L184.403 167.813C184.591 167.901 184.735 168.045 184.812 167.835Z" fill="#A8A8A8"/>
<path d="M251.925 170.597C249.085 170.011 242.069 170.243 239.174 170.497C241.561 162.343 244.025 151.713 245.019 145.857C245.379 144.237 245.535 142.577 245.483 140.918C245.447 140.769 245.38 140.629 245.287 140.507C245.194 140.386 245.076 140.285 244.942 140.211C240.522 137.437 194.214 143.526 190.988 145.128C190.027 145.603 189.165 148.001 188.778 149.083C185.916 144.376 186.215 143.26 183.021 135.824C181.032 130.981 178.508 126.374 175.497 122.09C175.574 121.504 178.635 98.6432 175.353 92.533C173.143 88.4447 161.177 87.0083 156.569 86.6216C156.569 86.3785 155.995 82.2018 155.752 80.3124C159.641 77.0639 161.276 71.0862 157.055 70.0807C154.061 69.3735 142.238 67.1195 133.432 69.3956C127.907 70.8321 123.488 74.0585 123.112 80.445C122.964 82.8701 123.112 85.3042 123.554 87.6933C117.841 88.3232 108.007 89.2624 102.991 91.1518C96.5383 93.5826 99.2564 121.814 99.9415 124.101C99.5658 125.029 99.2122 125.968 98.8918 126.841C82.815 122.742 46.8273 115.096 45.2251 115.239C44.8078 115.234 44.3957 115.333 44.0256 115.525C43.6554 115.718 43.3387 115.999 43.1037 116.344C42.6727 116.444 42.518 117.051 42.4407 117.449C41.3358 123.327 43.3357 158.431 43.6893 164.387C44.2749 166.53 61.3019 171.182 63.5118 171.79C63.6223 174.696 64.2079 189.126 64.3294 192.087C63.3682 191.912 62.4166 191.687 61.4787 191.413C59.5119 190.607 51.9763 197.944 52.6392 197.336C49.7554 199.899 81.1355 208.33 83.6437 207.623C86.1519 206.916 91.113 202.176 90.2733 199.535C90.0411 199.065 89.6495 198.693 89.1684 198.485C86.7927 197.236 80.5057 195.701 77.887 195.071C78.1411 189.723 78.1411 180.95 78.1301 175.624C81.2349 176.397 98.8586 180.662 102.041 180.607C102.269 180.61 102.494 180.553 102.693 180.441C103.709 180.298 104.903 180.044 105.002 179.005C105.002 178.696 105.256 176 105.577 172C113.366 174.972 122.814 174.751 124.493 174.066C124.946 173.848 125.329 173.507 125.598 173.083C125.675 173.182 125.709 173.16 126.294 173.248C128.504 173.602 132.04 173.933 134.029 172.895C136.846 173.348 145.012 174 145.619 171.271C145.697 170.906 145.807 170.166 145.918 169.271C154.094 169.713 183.132 169.514 183.242 169.514L182.568 172.552C182.551 172.527 182.528 172.507 182.501 172.493C182.474 172.48 182.444 172.473 182.414 172.475C182.414 172.387 182.414 172.409 182.414 172.475C177.889 172.118 173.349 172 168.812 172.121C167.199 172.199 162.945 172.398 162.867 173.967C162.302 175.3 162.22 176.789 162.635 178.176C162.878 179.049 164.934 180.464 165.696 180.983C161.376 180.552 158.857 180.718 157.553 181.182C157.243 181.236 156.954 181.375 156.718 181.583C156.482 181.792 156.309 182.062 156.217 182.363C156.125 182.664 156.119 182.985 156.199 183.289C156.279 183.594 156.441 183.87 156.669 184.088C158.149 186.121 161.232 186.806 161.564 189.469C162.193 194.518 149.354 200.231 144.669 202.231C147.023 199.137 153.332 189.403 150.271 187.049C146.868 184.43 117.687 183.281 115.002 183.966C113.112 184.452 99.2232 194.717 99.4774 198.33C99.6542 200.684 113.322 202.993 115.864 203.435C118.725 203.921 139.145 207.104 141.586 205.546C142.104 205.337 142.575 205.025 142.97 204.631C143.364 204.236 143.676 203.765 143.885 203.247C148.116 201.793 152.188 199.912 156.039 197.634C162.116 193.866 165.519 189.204 159.508 185.281C158.79 184.817 156.823 183.403 157.111 182.607C157.729 180.85 166.271 181.502 166.392 181.502C170.359 184.088 177.95 188.077 182.425 189.237C187.154 190.485 209.253 188.066 214.589 187.392C215.197 189.601 215.783 191.657 216.169 192.916C215.341 192.982 212.976 193.192 212.313 193.712C211.949 193.999 211.96 194.485 212.545 194.817C212.545 198.518 212.092 209.59 213.197 214.584C213.617 216.451 214.103 217.225 216.037 217.899C219.694 219.081 226.722 218.661 230.401 217.678C232.688 217.059 232.987 216.573 233.351 215.357C234.611 211.225 234.544 199.026 234.456 194.695C234.527 194.644 234.584 194.577 234.624 194.499C234.664 194.421 234.685 194.335 234.685 194.248C234.685 194.16 234.664 194.074 234.624 193.996C234.584 193.919 234.527 193.851 234.456 193.8C233.639 193.421 232.758 193.196 231.859 193.137C232.014 191.9 232.843 184.983 232.964 183.767C233.542 183.421 234.057 182.98 234.489 182.464C235.165 181.643 235.604 180.653 235.76 179.602C236.865 178.154 238.456 172.751 238.975 170.983C243.903 171.193 251.13 170.906 251.804 170.983C251.855 170.999 251.91 170.994 251.958 170.97C252.006 170.945 252.042 170.902 252.058 170.851C252.074 170.799 252.069 170.744 252.044 170.696C252.019 170.648 251.976 170.613 251.925 170.597ZM102.571 194.441C103.312 193.623 104.184 192.773 105.113 191.911C109.057 188.264 114.074 184.596 115.167 184.32C117.819 183.635 146.945 185.425 149.907 187.635C150.404 188.01 150.503 188.74 150.404 189.612C150.006 193.082 146.382 198.805 144.271 201.601C141.885 199.546 105.731 194.872 102.571 194.441ZM156.713 87.4171C160.934 87.8149 172.768 89.174 174.801 92.8644C177.674 98.0576 175.906 115.77 175.199 121.593C174.58 120.764 173.939 119.98 173.287 119.261C169.541 115.151 163.111 113.085 157.663 112.035C154.164 111.426 150.634 111.009 147.089 110.786C146.978 110.786 147.155 110.952 146.282 109.162C144.979 106.477 144.901 106.521 145.034 106.444C146.483 106.367 147.917 106.122 149.31 105.715C153.045 104.61 155.265 102.4 156.315 97.03C156.885 93.8472 157.004 90.6 156.669 87.384L156.713 87.4171ZM147.199 111.129C147.896 111.228 148.083 111.217 148.139 111.251C148.139 111.527 150.558 124.51 142.271 125.106C135.421 125.67 130.913 116.057 128.482 109.637C129.366 109.494 130.073 109.394 130.548 109.328C130.78 114.366 138.029 123.504 142.05 122.863C146.57 122.123 148.791 115.25 147.199 111.129ZM130.703 90.7982C130.802 90.3053 131.023 89.8449 131.345 89.4589C131.667 89.073 132.081 88.7737 132.548 88.5883C134.758 88.0469 134.758 90.7982 136.515 90.6435C138.725 90.4999 136.261 85.373 138.161 82.246C140.227 78.7986 148.603 85.7708 155.376 80.5997C156.194 86.4227 157.089 90.9529 155.84 96.8974C154.735 102.113 152.68 104.035 149.133 105.074C147.676 105.409 146.2 105.66 144.713 105.825C144.595 105.892 144.495 105.988 144.424 106.104C144.352 106.22 144.311 106.352 144.305 106.488C144.305 106.875 145.409 108.853 146.437 111.162C147.973 114.786 145.973 121.372 141.929 122.002C139.056 122.455 133.432 116.013 131.83 111.46C131.123 109.449 131.333 109.372 132.581 101.516C134.338 101.638 134.703 98.2013 134.791 96.4223C134.809 96.0452 134.678 95.676 134.426 95.3947C133.631 94.5218 132.979 95.5384 131.432 93.6047C131.095 93.2296 130.852 92.7788 130.725 92.2904C130.598 91.802 130.591 91.2902 130.703 90.7982ZM123.709 88.4889C125.189 95.2511 129.079 99.9471 131.753 101.251C131.266 104.356 130.714 107.814 130.57 108.864C124.195 109.184 117.907 110.488 111.93 112.731C109.276 113.747 106.802 115.184 104.604 116.985C103.389 110.687 106.516 98.3781 106.129 94.8865C105.952 93.4059 105.532 91.8369 104.085 91.5164C109.035 89.9585 118.206 89.0745 123.709 88.4889ZM103.422 91.8037C103.686 91.8127 103.946 91.8751 104.185 91.9871C104.424 92.0992 104.638 92.2585 104.814 92.4556C105.312 93.2073 105.563 94.0957 105.532 94.997C105.776 98.3118 102.339 110.532 104.273 117.306C102.41 119.052 101 121.225 100.162 123.637C99.2785 118.256 97.8089 93.7594 103.422 91.8037ZM63.7217 142.144C63.8101 141.625 64.7604 141.393 65.2797 141.305C69.1138 140.675 77.0804 142.863 76.9036 145.526C76.6384 149.47 77.8538 197.27 76.8152 199.026C75.5777 201.137 68.8155 199.966 66.1194 198.087C64.893 197.236 64.9151 196.507 64.9482 196.651C64.009 159.028 63.567 143.006 63.7217 142.144ZM89.3341 199.899C89.8976 201.778 85.4668 206.098 83.4116 206.673C81.3565 207.247 51.0592 199.402 53.037 197.612C52.1199 198.441 57.965 193.06 60.5395 192.198C60.7447 192.096 60.9792 192.068 61.2025 192.121C61.5008 192.253 62.672 192.552 64.3626 192.949C64.462 195.281 64.5283 196.662 64.5283 196.662C65.1802 199.91 75.5777 202.363 77.3898 199.369C77.6672 198.308 77.8156 197.217 77.8317 196.121C79.5223 196.54 88.196 198.651 89.3341 199.899ZM102.041 179.668C99.1349 179.779 81.0471 175.536 78.1301 174.851C78.0748 161.901 77.8096 147.382 77.9422 145.592C78.2074 141.526 67.8652 139.316 64.2189 140.509C63.8576 140.588 63.5255 140.767 63.2601 141.025C62.9946 141.282 62.8063 141.609 62.7162 141.968C62.4732 143.437 63.4234 169.591 63.4786 171.16C61.6776 170.674 44.8053 166.177 44.1092 164.376C43.9213 160.31 42.1203 120.996 43.402 117.272C49.4128 118.775 100.748 129.128 104.361 131.637C105.267 134.123 103.201 176.154 102.041 179.668ZM104.637 179.016C104.637 179.756 103.654 180.011 102.925 180.121C104.118 177.259 106.494 133.714 105.278 131.15C104.063 128.587 48.6283 117.814 43.4462 116.366C43.6767 116.117 43.9572 115.919 44.2695 115.786C44.5818 115.653 44.9188 115.587 45.2583 115.593C46.7941 115.482 103.477 128.145 106.77 129.957C107.322 131.548 106.77 142.631 106.693 144.454C106.494 148.851 104.682 178.419 104.637 179.016ZM134.471 171.536C133.178 173.259 128.592 173.049 126.438 172.851H125.907C126.89 170.874 127.448 168.714 127.543 166.508C128.648 166.199 132.692 165.26 133.31 166.254C133.498 166.541 132.902 166.884 132.592 167.05C131.775 167.429 130.919 167.718 130.04 167.912C129.909 167.936 129.794 168.012 129.72 168.122C129.645 168.232 129.617 168.367 129.642 168.497C129.667 168.628 129.743 168.743 129.853 168.817C129.962 168.892 130.097 168.92 130.228 168.895C131.333 168.74 134.349 168.32 135.421 168.685C134.979 169.298 134.345 169.745 133.62 169.956C132.587 169.949 131.555 170.034 130.537 170.21C130.39 170.238 130.259 170.318 130.168 170.437C130.077 170.555 130.033 170.703 130.044 170.851C130.055 171 130.12 171.14 130.227 171.244C130.335 171.348 130.476 171.408 130.625 171.414C131.748 171.447 132.868 171.294 133.94 170.961C134.22 170.973 134.494 171.04 134.747 171.16C134.676 171.309 134.57 171.438 134.437 171.536H134.471ZM144.923 171.149C144.877 171.321 144.789 171.479 144.668 171.61C144.546 171.741 144.395 171.841 144.227 171.9C142.183 173.005 137.023 172.806 134.725 172.574C135.576 171.922 136.073 170.862 135.211 170.276C136.913 169.171 136.736 167.989 135.62 167.646C134.897 167.471 134.15 167.419 133.41 167.492C134.106 166.972 134.36 166.387 133.94 165.757C133.333 164.895 131.73 165.006 130.736 165.171C130.263 160.797 130.019 156.401 130.007 152.001C132.957 154.144 142.736 154.21 146.15 152.177C146.316 155.89 145.2 169.536 144.879 171.149H144.923ZM135.443 168.641C135.443 168.641 135.41 168.663 135.41 168.641H135.443ZM159.155 168.884C161.199 162.906 161.486 150.244 161.365 143.912C163.077 146.664 172.414 159.857 172.48 159.967C172.707 160.314 172.974 160.633 173.276 160.917C175.502 162.952 178.001 164.666 180.701 166.011C183.585 167.536 183.817 167.459 183.795 167.58L183.408 169.237C183.22 169.226 160.845 168.884 159.122 168.884H159.155ZM163.917 173.845C166.293 172.188 182.447 172.939 182.624 172.829V172.95C181.077 180.353 180.48 183.027 180.292 183.999C180.392 183.568 180.999 180.685 181.696 177.491C182.182 175.149 182.8 172.364 183.43 169.414C183.718 168.066 183.905 167.204 183.916 167.138C180.889 165.536 176.27 162.774 173.85 160.332C173.243 159.713 161.497 143.437 161.387 143.249C161.276 143.062 161.276 138.211 161.155 137.99C161.132 137.965 161.101 137.948 161.068 137.94C161.035 137.933 161 137.936 160.968 137.95C160.937 137.963 160.91 137.986 160.892 138.015C160.874 138.044 160.866 138.077 160.868 138.111C160.757 138.111 160.868 161.735 158.823 168.851L146.095 168.972C146.172 168.354 146.249 167.635 146.338 166.862C151.465 167.514 153.796 161.89 152.437 157.304C151.63 154.785 149.553 154.398 147.177 155.614C147.288 154.142 147.288 152.665 147.177 151.194C147.28 150.94 147.298 150.66 147.228 150.395C147.158 150.13 147.005 149.895 146.791 149.724C145.144 148.177 140.537 148.012 138.294 148.012C136.051 148.012 131.432 148.188 129.797 149.724C129.654 149.835 129.54 149.979 129.465 150.144C128.626 151.658 130.239 164.928 130.438 165.216C129.475 165.407 128.527 165.662 127.598 165.978V164.21C127.532 160.354 115.201 158.21 114.781 156.011C114.637 155.26 114.405 153.581 114.14 151.592C112.648 140.675 112.869 141.095 112.626 141.095C112.585 141.095 112.546 141.111 112.517 141.14C112.488 141.169 112.471 141.208 112.471 141.249C112.471 141.548 113.665 153.57 114.096 156.122C114.527 158.674 126.769 161.149 126.824 164.21C126.824 166.597 126.294 172.519 124.228 173.37C122.979 173.9 113.322 174.386 105.621 171.679C105.787 169.536 108.858 131.161 107.378 129.46C106.814 128.808 100.196 127.151 99.3558 126.941C102.671 119.427 105.124 113.239 128.173 109.626C128.813 111.772 129.595 113.872 130.515 115.913C132.857 120.919 136.824 126.322 142.316 125.858C148.625 125.316 149.641 118.477 148.636 112.234C148.57 111.792 148.503 111.505 148.448 111.251C151.48 111.554 154.493 112.019 157.475 112.643C162.68 113.748 169.077 115.847 172.646 119.803C176.502 124.046 179.872 130.598 182.237 135.835C185.64 143.371 185.618 145.316 188.546 149.658C186.487 156.155 184.761 162.752 183.375 169.425C182.933 171.492 182.27 174.641 181.64 177.502C180.723 181.922 180.171 184.718 180.226 184.132C180.126 184.729 180.226 184.707 180.226 184.85C176.624 183.244 173.148 181.367 169.829 179.237C168.668 178.464 162.746 174.674 163.917 173.823V173.845ZM147.089 157.868C147.089 157.293 147.155 156.763 147.177 156.21C149.177 155.404 150.956 155.525 151.498 157.614C152.603 161.403 150.857 166.453 146.404 166.453C146.404 165.923 146.592 164.409 146.614 164.243C151.697 164.928 151.663 155.625 147.089 157.868ZM146.658 163.768C146.813 162.022 146.945 160.177 147.056 158.442C147.585 158.279 148.151 158.279 148.68 158.442C149.995 158.917 149.785 163.481 146.603 163.768H146.658ZM182.8 188.287C178.549 186.896 174.435 185.113 170.514 182.961C169.409 182.375 163.685 179.259 163.298 178.055C162.964 176.98 162.93 175.833 163.199 174.74C164.68 177.624 174.071 182.475 177.088 183.9C178.469 184.552 179.894 185.105 181.353 185.557C186.458 187.38 208.358 184.452 213.739 183.789C213.805 184.021 214.269 185.8 214.446 186.441C209.761 186.983 187.198 189.447 182.745 188.287H182.8ZM232.169 216.076C230.556 217.446 220.876 218.595 216.313 217.181C214.656 216.661 214.324 216.131 213.926 214.451C213.564 212.629 213.335 210.782 213.241 208.927C215.506 210.319 219.661 210.672 222.324 210.75C226.335 210.838 230.279 210.75 233.506 208.927C233.44 210.098 233.064 215.313 232.169 216.076ZM233.539 208.496C231.36 209.428 229.015 209.913 226.644 209.921C223.484 210.076 216.081 210.054 213.219 208.529C213.098 206.452 213.02 204.231 212.987 202.165C214.092 203.49 219.981 204.087 222.335 204.164C226.534 204.253 230.434 204.164 233.793 202.176C233.793 202.065 233.76 204.684 233.55 208.496H233.539ZM233.793 201.789C228.268 204.573 214.556 203.314 212.976 201.789V194.993C216.49 196.242 230.379 196.154 233.859 194.993C233.837 196.264 233.848 198.85 233.804 201.789H233.793ZM231.583 194.353C231.623 194.364 231.665 194.36 231.702 194.341C231.739 194.323 231.767 194.291 231.782 194.253C231.782 194.253 231.782 194.054 231.848 193.701C232.561 193.799 233.263 193.958 233.948 194.176C231.528 195.281 216.965 195.38 213.33 194.308C213.305 194.301 213.283 194.285 213.268 194.264C213.253 194.244 213.244 194.218 213.244 194.192C213.244 194.166 213.253 194.141 213.268 194.12C213.283 194.1 213.305 194.084 213.33 194.076C214.343 193.801 215.378 193.616 216.424 193.524C216.497 193.831 216.608 194.128 216.755 194.408C216.843 194.496 216.987 194.507 216.976 194.286C216.965 194.065 213.341 179.756 212.788 176.607C213.353 176.796 213.956 176.843 214.543 176.745C215.131 176.647 215.685 176.406 216.158 176.044C217.374 179.447 221.252 194.761 221.484 194.761C221.526 194.759 221.566 194.74 221.594 194.709C221.623 194.678 221.639 194.638 221.639 194.596L221.318 193.104H222.843C222.843 193.314 222.965 194.386 222.976 194.463C222.987 194.54 223.307 194.728 223.285 194.319C223.285 193.325 222.357 176.85 222.335 176.552C222.494 176.475 222.661 176.416 222.832 176.375C222.954 176.972 226.843 192.728 227.141 193.955C227.141 194.065 227.141 194.253 227.351 194.209C227.561 194.165 227.473 193.966 227.351 193.248L229.042 193.369V193.557C229.042 193.734 229.318 193.69 229.351 193.557C229.351 193.679 231.406 172.475 231.561 170.784C231.852 171.005 232.187 171.162 232.543 171.243C232.899 171.325 233.269 171.331 233.627 171.259C233.605 171.425 231.34 194.275 231.572 194.353H231.583ZM221.639 172.387C221.508 171.324 221.044 170.33 220.313 169.547C221.827 170 222.147 170.331 222.523 171.37C222.822 172.197 222.902 173.088 222.755 173.956C222.605 174.502 222.605 175.078 222.755 175.624C222.574 175.666 222.397 175.721 222.224 175.79C221.539 173.834 220.015 173.856 220.015 171.889C220.013 171.178 219.908 170.471 219.705 169.79C220.24 170.76 220.827 171.7 221.462 172.608C221.573 172.751 221.782 172.541 221.65 172.387H221.639ZM222.191 186.331C222.247 186.872 222.677 191.568 222.788 192.762H221.208C220.876 191.27 220.379 189.06 219.816 186.695L222.191 186.331ZM222.125 185.48L219.606 185.811C219.385 184.894 219.153 183.966 218.921 183.049C219.937 182.906 220.932 182.751 221.893 182.596C221.937 183.071 222.092 184.994 222.136 185.48H222.125ZM225.561 184.972C225.385 184.132 224.954 182.231 224.921 182.121C225.882 181.955 229.152 181.392 229.826 181.259C229.826 181.734 229.639 183.745 229.594 184.254C228.523 184.486 227.152 184.729 225.539 184.972H225.561ZM229.55 184.972C229.351 187.834 229.042 192.618 229.031 192.883C228.456 192.883 227.849 192.861 227.208 192.817C226.943 191.48 225.804 186.121 225.727 185.756C227.219 185.458 228.5 185.193 229.561 184.939L229.55 184.972ZM231.661 169.867C231.795 168.467 232.013 167.076 232.313 165.702C232.607 165.613 232.918 165.592 233.222 165.64C233.526 165.688 233.816 165.803 234.069 165.978C234.003 167.367 233.856 168.75 233.627 170.121C233.528 170.508 233.506 170.608 233.252 170.641C232.754 170.674 231.749 170.254 231.672 169.834L231.661 169.867ZM233.108 183.038C233.208 182.22 233.307 181.392 233.395 180.563C234.05 180.426 234.693 180.237 235.318 180C234.97 181.233 234.189 182.3 233.119 183.005L233.108 183.038ZM234.953 179.082C234.487 179.268 234.007 179.416 233.517 179.524C233.716 177.668 234.887 166.862 234.887 166.099C234.887 164.995 232.92 164.586 231.904 164.995C231.561 165.149 231.462 165.801 231.362 166.376C230.81 169.458 230.158 177.149 229.904 180.276L224.722 181.226C223.429 175.591 223.539 175.9 223.396 175.757C223.297 175.663 223.167 175.608 223.031 175.602C222.929 175.11 222.956 174.6 223.108 174.121C223.337 173.166 223.306 172.166 223.02 171.226C222.873 170.543 222.48 169.937 221.915 169.525C221.016 169.048 220.046 168.72 219.042 168.552C218.99 168.538 218.934 168.537 218.881 168.548C218.828 168.56 218.778 168.584 218.736 168.618C218.694 168.653 218.66 168.697 218.639 168.747C218.617 168.797 218.608 168.852 218.611 168.906C218.635 169 218.665 169.092 218.7 169.182C219.562 171.237 218.965 172.177 219.562 173.403C220.158 174.63 221.164 174.817 221.528 176.232C221.528 176.342 221.838 181.447 221.849 181.756L218.722 182.254C218.501 181.414 216.987 175.436 216.39 174.851C215.285 173.746 212.125 174.983 211.971 175.955C211.871 176.508 213.385 182.43 213.529 182.994C207.838 183.823 201.805 184.574 196.468 185.071C194.137 185.281 179.894 186.585 180.69 184.254C181.795 179.149 184.005 169.779 184.447 167.812V167.657C184.447 167.492 184.524 167.326 184.447 167.812C184.447 167.646 184.513 167.547 184.535 167.492L187.298 156.807C187.662 155.492 190.17 146.553 191.441 145.923C194.259 144.531 240.566 138.542 244.478 141.161C245.141 144.001 236.997 177.734 234.964 179.093L234.953 179.082Z" fill="#A8A8A8"/>
<path d="M145.442 90.2128V89.362C145.442 89.2243 145.387 89.0922 145.29 88.9948C145.193 88.8974 145.061 88.8427 144.923 88.8427C144.784 88.8427 144.651 88.897 144.552 88.9941C144.453 89.0912 144.395 89.2233 144.392 89.362V90.3564C144.417 90.4879 144.491 90.6048 144.6 90.6829C144.708 90.761 144.843 90.7942 144.975 90.7757C145.107 90.7572 145.227 90.6884 145.31 90.5835C145.393 90.4787 145.433 90.3459 145.42 90.2128H145.442ZM216.059 158.21C215.738 157.901 215.285 157.536 214.865 157.669C214.169 157.89 213.473 159.658 213.175 160.387C212.337 162.563 211.672 164.802 211.186 167.083C211.639 168.254 219.285 166.718 220.324 166.21C220.655 166.055 220.611 165.658 220.5 165.304C219.407 162.718 217.907 160.323 216.059 158.21ZM211.484 166.939C211.683 166.022 214.202 158.995 215.064 158.354C216.401 159.116 219.086 163.801 219.804 165.569C218.81 165.967 212.059 167.68 211.484 166.939ZM121.52 190.375C121.41 190.452 119.001 191.977 118.891 192.088C118.864 192.099 118.842 192.117 118.826 192.141C118.811 192.164 118.802 192.192 118.802 192.22C118.802 192.249 118.811 192.276 118.826 192.3C118.842 192.324 118.864 192.342 118.891 192.353C119.509 192.53 121.576 192.762 122.205 192.828C137.321 189.038 137.42 189.038 137.233 189.038C137.334 189.024 137.427 188.972 137.49 188.891C137.554 188.811 137.585 188.709 137.575 188.607C137.575 188.419 137.277 187.116 137.188 186.718L121.52 190.375ZM150.801 85.5942C151.11 85.5942 151.718 85.7378 151.84 85.7489C152.51 85.8185 153.175 85.9366 153.829 86.1025L154.823 86.2792C154.861 86.2887 154.901 86.2845 154.936 86.2674C154.971 86.2502 154.999 86.2213 155.015 86.1857C155.03 86.1501 155.033 86.1101 155.022 86.0726C155.012 86.0351 154.988 86.0027 154.956 85.9809C154.379 85.4925 153.68 85.1715 152.934 85.0528C152.195 84.8943 151.425 84.9597 150.724 85.2406C150.701 85.2457 150.679 85.2553 150.659 85.2689C150.64 85.2824 150.623 85.2997 150.61 85.3197C150.597 85.3397 150.589 85.3621 150.584 85.3855C150.58 85.4089 150.581 85.4329 150.586 85.4561C150.591 85.4793 150.6 85.5013 150.614 85.5208C150.627 85.5403 150.645 85.5569 150.665 85.5697C150.685 85.5826 150.707 85.5913 150.731 85.5955C150.754 85.5997 150.778 85.5993 150.801 85.5942ZM142.05 86.5665C142.348 86.5002 142.989 86.4008 143.155 86.3787C143.825 86.2325 144.504 86.1364 145.188 86.0914L146.293 85.9699C146.337 85.9699 146.379 85.9524 146.41 85.9213C146.441 85.8902 146.459 85.8481 146.459 85.8041C146.459 85.7602 146.441 85.718 146.41 85.6869C146.379 85.6558 146.337 85.6384 146.293 85.6384C145.581 85.3364 144.799 85.2355 144.034 85.3465C143.268 85.4576 142.548 85.7763 141.951 86.2682C141.924 86.2682 141.898 86.2744 141.875 86.2864C141.852 86.2984 141.831 86.3157 141.816 86.337C141.801 86.3583 141.791 86.383 141.787 86.4089C141.783 86.4349 141.785 86.4614 141.793 86.4863C141.802 86.5113 141.816 86.5338 141.835 86.5522C141.853 86.5706 141.876 86.5843 141.901 86.5921C141.926 86.6 141.953 86.6017 141.979 86.5973C142.005 86.5928 142.029 86.5823 142.05 86.5665ZM153.099 88.4891C152.962 88.4891 152.83 88.5438 152.732 88.6412C152.635 88.7386 152.58 88.8707 152.58 89.0084V90.0029C152.599 90.1406 152.672 90.2651 152.783 90.349C152.894 90.433 153.033 90.4694 153.171 90.4504C153.309 90.4313 153.433 90.3583 153.517 90.2475C153.601 90.1366 153.638 89.997 153.619 89.8592V89.0084C153.62 88.9398 153.608 88.8716 153.582 88.8079C153.557 88.7442 153.518 88.6864 153.47 88.6379C153.421 88.5893 153.364 88.5511 153.3 88.5256C153.236 88.5 153.168 88.4876 153.099 88.4891ZM67.3455 184.419C68.8813 184.917 72.4613 186.254 74.1077 186.055C74.3065 186.055 74.5275 185.856 74.6712 185.502C75.7761 183.016 74.9806 170.376 74.5828 167.934C74.3065 166.177 67.9532 164 66.4173 165.249C65.4229 166.055 65.9201 175.414 66.0306 176.718C66.3179 179.867 66.0195 183.989 67.3455 184.419ZM66.9145 165.834C68.1079 164.973 73.6436 167.017 73.8204 168.044C74.0966 169.779 75.1242 184.364 74.0193 185.502C72.5939 185.712 68.815 184.552 67.3897 184.11C66.3842 183.779 66.7267 179.381 66.561 176.663C66.4836 174.829 66.3621 167.547 66.9145 165.834ZM145.431 96.8314C145.404 96.8177 145.373 96.8106 145.343 96.8106C145.312 96.8106 145.282 96.8177 145.254 96.8314C144.978 96.9308 144.812 97.2402 144.768 97.6932C144.732 98.8638 145.125 100.007 145.873 100.909C146.048 101.148 146.27 101.349 146.525 101.501C146.78 101.653 147.062 101.752 147.356 101.792C147.65 101.832 147.949 101.813 148.235 101.735C148.521 101.657 148.789 101.523 149.022 101.339C149.688 100.791 150.211 100.09 150.547 99.2954C150.577 99.2334 150.593 99.1654 150.593 99.0965C150.593 99.0275 150.577 98.9595 150.547 98.8976C150.204 98.3672 149.387 99.1186 145.431 96.8314ZM145.332 97.207C146.532 98.2293 147.937 98.9828 149.453 99.4169C147.089 103.439 144.713 98.0136 145.332 97.207ZM148.039 94.6104C148.746 94.743 150.702 94.5 151.122 93.7817C151.331 93.4392 151.122 93.3287 150.657 91.9144C150.239 90.6857 149.749 89.4829 149.188 88.3123C148.989 88.0029 148.735 88.3123 148.879 88.5002C149.186 90.1942 149.675 91.8501 150.337 93.4392C149.537 93.8134 148.719 94.1453 147.884 94.4337C147.883 94.4554 147.885 94.4773 147.892 94.498C147.899 94.5187 147.91 94.5378 147.925 94.5542C147.939 94.5706 147.957 94.584 147.976 94.5937C147.996 94.6033 148.017 94.609 148.039 94.6104ZM188.789 209.513C192.932 206.883 189.706 204.463 186.966 205.612C186.292 204.386 186.137 204.286 184.756 204.352C177.585 204.717 145.199 212.209 144.89 212.33C143.254 213.004 147.409 222.761 149.055 224.042C149.431 224.33 149.309 224.385 153.365 223.589C153.63 225.998 154.679 230.219 157.132 230.352C158.276 230.142 159.389 229.793 160.447 229.313C162.496 231.351 164.678 233.252 166.977 235.003C169.519 236.705 185.761 217.733 188.192 215.523C188.888 215.291 189.507 215.137 189.43 213.413C191.529 213.026 193.153 211.733 192.037 209.877C191.286 208.75 189.982 208.927 188.789 209.513ZM189.175 206.507C189.628 206.673 189.861 206.85 189.717 207.303C189.419 207.995 188.983 208.619 188.435 209.137C188.142 208.238 187.799 207.357 187.408 206.496C187.98 206.29 188.606 206.294 189.175 206.507ZM177.419 206.142C177.828 208.076 178.104 209.126 178.623 210.905L170.966 212.352C170.526 210.754 170.013 209.176 169.43 207.623C170.878 207.347 176.237 206.341 177.419 206.142ZM166.093 220.893C166.499 222.282 167.098 223.606 167.872 224.827C165.751 225.854 163.751 226.794 162.049 227.567C161.439 225.714 160.58 223.952 159.497 222.33L166.093 220.893ZM162.966 220.893C162.593 218.974 162.121 217.074 161.552 215.203L170.392 213.291C170.874 215.163 171.456 217.007 172.137 218.816C169.099 219.457 165.928 220.175 162.966 220.849V220.893ZM166.646 220.949C166.524 220.772 165.773 221.037 173.905 219.17C174.049 219.991 174.353 220.775 174.8 221.479L168.325 224.65C167.941 223.33 167.376 222.07 166.646 220.904V220.949ZM174.38 219.048C178.579 218.076 182.435 217.148 185.098 216.44L175.342 221.203C175.161 220.418 174.839 219.673 174.391 219.004L174.38 219.048ZM172.513 218.706C172.159 216.82 171.709 214.954 171.165 213.115L178.712 211.258C178.712 211.314 179.22 213.015 179.452 213.744C179.563 214.076 180.502 216.75 180.557 216.794C178.27 217.302 172.69 218.617 172.502 218.661L172.513 218.706ZM169.099 207.734C169.463 209.745 169.806 211.048 170.204 212.551L161.364 214.496C160.845 212.739 160.491 211.59 159.729 209.601C161.453 209.203 167.773 207.944 169.11 207.689L169.099 207.734ZM159.364 209.667C159.795 211.877 160.116 213.037 160.58 214.673C159.839 214.838 153.795 216.352 153.795 216.352C153.575 216.352 153.663 216.695 153.884 216.65C153.884 216.65 160.436 215.435 160.768 215.358C160.768 215.358 161.243 217.258 162.602 220.982L155.475 222.573C154.456 218.719 153.175 214.938 151.641 211.258L159.364 209.667ZM149.365 223.667C147.685 222.407 143.84 213.126 145 212.617C145 212.617 147.531 212.065 151.331 211.269C152.279 215.142 153.543 218.93 155.11 222.595C149.298 223.899 149.553 223.766 149.376 223.623L149.365 223.667ZM157.099 229.545C155.232 229.545 154.116 225.512 153.784 223.678C153.784 223.468 153.199 223.678 158.978 222.473C159.265 222.418 158.812 222.341 160.193 225.214C160.589 226.116 161.078 226.975 161.652 227.777C160.198 228.473 158.69 229.05 157.143 229.501L157.099 229.545ZM167.397 234.274C165.151 232.7 162.993 231.003 160.933 229.191C162.834 228.407 164.988 227.401 166.845 226.517C168.298 228.207 169.945 229.72 171.751 231.026C170.999 231.666 168.447 234.031 167.441 234.23L167.397 234.274ZM172.071 230.694C170.612 229.065 168.978 227.601 167.198 226.33L174.137 222.915C175.104 223.908 176.223 224.74 177.452 225.379C175.714 227.177 173.935 228.935 172.115 230.65L172.071 230.694ZM177.828 225.026C176.906 224.085 175.857 223.278 174.712 222.628C179.463 220.23 182.192 218.772 186.623 216.319C184.656 218.054 179.662 223.158 177.872 224.982L177.828 225.026ZM188.369 214.639C187.894 214.982 181.386 216.573 180.822 216.706C180.119 213.091 179.087 209.548 177.739 206.12C179.883 205.756 184.126 205.015 185.706 205.192C185.92 205.444 186.105 205.718 186.258 206.01C185.504 206.522 184.88 207.203 184.435 207.999C184.325 208.275 184.612 208.419 184.756 208.286C185.309 207.701 185.954 207.212 186.667 206.839C187.169 207.875 187.604 208.941 187.971 210.032C186.989 210.703 186.104 211.506 185.341 212.418C185.198 212.595 185.242 212.728 185.341 212.783C185.607 212.938 185.629 212.54 188.236 210.993C188.5 211.888 188.648 212.812 188.678 213.744C188.623 213.943 188.59 214.452 188.413 214.595L188.369 214.639ZM191.12 211.678C190.627 212.243 190.005 212.683 189.308 212.96C189.206 212.172 189.048 211.393 188.833 210.628C189.551 210.264 190.667 209.8 191.043 210.474C191.184 210.629 191.272 210.825 191.294 211.034C191.316 211.243 191.271 211.453 191.164 211.634L191.12 211.678Z" fill="#A8A8A8"/>
</svg>
