<svg width="34" height="35" viewBox="0 0 34 35" fill="none" xmlns="http://www.w3.org/2000/svg">
<rect y="0.825684" width="34" height="34" rx="8" fill="#227BFF"/>
<g clip-path="url(#clip0_600_628)">
<path d="M23.1726 17.1346C23.1513 17.0445 23.1081 16.961 23.0468 16.8915C22.9854 16.8221 22.9079 16.7689 22.8211 16.7367L18.7704 15.2172L19.8012 10.0612C19.8245 9.94139 19.8082 9.81725 19.7548 9.7075C19.7014 9.59775 19.6138 9.50835 19.5051 9.45279C19.3964 9.39722 19.2727 9.37851 19.1524 9.39947C19.0322 9.42044 18.922 9.47994 18.8386 9.569L10.9636 18.0065C10.8996 18.0739 10.8533 18.1561 10.8289 18.2457C10.8045 18.3354 10.8026 18.4297 10.8235 18.5202C10.8444 18.6107 10.8874 18.6947 10.9486 18.7645C11.0099 18.8344 11.0875 18.888 11.1745 18.9206L15.2266 20.44L14.1987 25.5904C14.1753 25.7102 14.1916 25.8343 14.245 25.9441C14.2984 26.0538 14.386 26.1432 14.4947 26.1988C14.6034 26.2544 14.7271 26.2731 14.8474 26.2521C14.9676 26.2312 15.0778 26.1717 15.1612 26.0826L23.0362 17.6451C23.099 17.5777 23.1443 17.4959 23.1681 17.4069C23.1919 17.3179 23.1934 17.2244 23.1726 17.1346ZM15.69 23.8727L16.4262 20.1897C16.4525 20.0591 16.4316 19.9234 16.3672 19.8067C16.3029 19.69 16.1991 19.6 16.0746 19.5527L12.3593 18.157L18.3091 11.7824L17.5737 15.4654C17.5473 15.596 17.5682 15.7318 17.6326 15.8484C17.6969 15.9651 17.8007 16.0551 17.9252 16.1024L21.6377 17.4946L15.69 23.8727Z" fill="white"/>
</g>
<defs>
<clipPath id="clip0_600_628">
<rect width="18" height="18" fill="white" transform="translate(8 8.82568)"/>
</clipPath>
</defs>
</svg>
