<svg width="13" height="17" viewBox="0 0 13 17" fill="none" xmlns="http://www.w3.org/2000/svg">
<path d="M12.4593 7.80347C12.4378 7.71261 12.3942 7.62847 12.3324 7.5585C12.2706 7.48854 12.1925 7.43492 12.105 7.40242L8.02293 5.8712L9.06169 0.675261C9.08521 0.554536 9.06883 0.429436 9.01502 0.318838C8.9612 0.20824 8.87288 0.118146 8.76337 0.0621515C8.65386 0.00615666 8.5291 -0.0127008 8.40794 0.00842464C8.28677 0.0295501 8.17576 0.0895123 8.09166 0.179263L0.155687 8.68209C0.0912321 8.75001 0.0446045 8.83283 0.0199703 8.92317C-0.00466401 9.0135 -0.00653779 9.10853 0.0145165 9.19977C0.0355707 9.291 0.0788971 9.3756 0.140625 9.44601C0.202353 9.51641 0.28056 9.57043 0.368258 9.60323L4.45174 11.1344L3.41581 16.3247C3.39229 16.4454 3.40867 16.5705 3.46249 16.6811C3.5163 16.7917 3.60463 16.8818 3.71414 16.9378C3.82365 16.9938 3.9484 17.0127 4.06957 16.9916C4.19074 16.9704 4.30175 16.9105 4.38584 16.8207L12.3218 8.31789C12.3851 8.24996 12.4307 8.16752 12.4547 8.07782C12.4787 7.98812 12.4802 7.89391 12.4593 7.80347ZM4.91869 14.5937L5.66056 10.8822C5.68711 10.7506 5.66607 10.6138 5.60119 10.4962C5.53631 10.3787 5.4318 10.2879 5.30628 10.2402L1.5622 8.83373L7.55811 2.40984L6.81695 6.12132C6.79039 6.25295 6.81143 6.38973 6.87631 6.5073C6.9412 6.62487 7.04571 6.71558 7.17123 6.76329L10.9125 8.16625L4.91869 14.5937Z" fill="white"/>
</svg>
