<svg width="20" height="21" viewBox="0 0 20 21" fill="none" xmlns="http://www.w3.org/2000/svg">
<path d="M13.5672 8.27412C13.6253 8.33217 13.6714 8.4011 13.7029 8.47697C13.7343 8.55284 13.7505 8.63417 13.7505 8.71631C13.7505 8.79844 13.7343 8.87977 13.7029 8.95565C13.6714 9.03152 13.6253 9.10045 13.5672 9.1585L9.19219 13.5335C9.13415 13.5916 9.06522 13.6377 8.98934 13.6692C8.91347 13.7006 8.83214 13.7168 8.75 13.7168C8.66787 13.7168 8.58654 13.7006 8.51067 13.6692C8.43479 13.6377 8.36586 13.5916 8.30782 13.5335L6.43282 11.6585C6.31554 11.5412 6.24966 11.3822 6.24966 11.2163C6.24966 11.0505 6.31554 10.8914 6.43282 10.7741C6.55009 10.6568 6.70915 10.591 6.875 10.591C7.04086 10.591 7.19992 10.6568 7.31719 10.7741L8.75 12.2077L12.6828 8.27412C12.7409 8.21601 12.8098 8.16991 12.8857 8.13846C12.9615 8.10701 13.0429 8.09082 13.125 8.09082C13.2071 8.09082 13.2885 8.10701 13.3643 8.13846C13.4402 8.16991 13.5091 8.21601 13.5672 8.27412ZM18.125 10.5913C18.125 12.1983 17.6485 13.7692 16.7557 15.1053C15.8629 16.4415 14.594 17.4829 13.1093 18.0978C11.6247 18.7128 9.99099 18.8737 8.4149 18.5602C6.8388 18.2467 5.39106 17.4729 4.25476 16.3366C3.11846 15.2002 2.34463 13.7525 2.03112 12.1764C1.71762 10.6003 1.87852 8.96666 2.49348 7.48201C3.10844 5.99736 4.14985 4.7284 5.486 3.83562C6.82214 2.94283 8.39303 2.46631 10 2.46631C12.1542 2.46858 14.2195 3.32534 15.7427 4.84858C17.266 6.37182 18.1227 8.43712 18.125 10.5913ZM16.875 10.5913C16.875 9.23156 16.4718 7.90235 15.7164 6.77176C14.9609 5.64118 13.8872 4.75999 12.631 4.23964C11.3747 3.71928 9.99238 3.58314 8.65876 3.84841C7.32514 4.11368 6.10013 4.76846 5.13864 5.72995C4.17716 6.69144 3.52238 7.91644 3.2571 9.25006C2.99183 10.5837 3.12798 11.966 3.64833 13.2223C4.16868 14.4785 5.04987 15.5522 6.18046 16.3077C7.31105 17.0631 8.64026 17.4663 10 17.4663C11.8227 17.4642 13.5702 16.7392 14.8591 15.4504C16.1479 14.1615 16.8729 12.414 16.875 10.5913Z" fill="#484848"/>
</svg>
